<svg id="Layer_1" data-name="Layer 1" xmlns="http://www.w3.org/2000/svg" viewBox="0 0 680 256"><title>Artboard 24</title><path d="M111.71,254.76,14.55,159.94l-6.2-6.07,22.3-64.25,36.69,34.75,53.06,50.27S131.2,237.38,111.71,254.76Z" fill="#329dcc"/><polygon points="128.01 1.24 127.99 1.24 30.65 89.62 67.34 124.36 128.01 83.48 188.66 124.36 225.35 89.62 128.01 1.24" fill="#004b7d"/><path d="M247.65,153.87l-6.2,6.07-97.16,94.82c-19.49-17.37-8.7-80.12-8.7-80.12l53.06-50.27,36.69-34.75Z" fill="#329dcc"/><polygon points="482.01 101.73 495.8 128.82 518.32 128.5 482.01 101.73" fill="#004476"/><polygon points="479.17 93.47 523.85 62.97 501.41 62.62 479.17 93.47" fill="#004476"/><path d="M353,56.94l-22.39-.4,0,79.87c0,5.24-5.67,9.7-9.85,11.65l.14,2.75,31.26,0Z" fill="#004476"/><polygon points="487.67 73.5 487.51 60.45 418.9 60.85 409.01 70.7 463.21 71.89 416.26 136.7 417.22 149.14 515.72 148.42 522.43 135.42 442.72 135.53 487.67 73.5" fill="#004476"/><polygon points="650.07 83.06 628.28 96.15 647.38 95.89 650.07 83.06" fill="#004476"/><polygon points="572.23 82.81 573.82 96.44 593.75 97.11 572.23 82.81" fill="#004476"/><polygon points="311.91 69.09 293.26 69.03 282.52 141.8 303.9 140.74 311.91 69.09" fill="#004476"/><path d="M656.63,149c-11.76-10.09-25.56-24.81-29.75-35.67l28.91.2V102.64l-35.2.59,0-28.2,31,.2-.4-9.1-30.06-.2.39-9.4-19.36.39.1,9.21-30.43-.06a32.56,32.56,0,0,0,3.52-9.21l-22.95-.29c-8.89,18.5-12.15,26.4-22.84,37.9l12.22.92,0,55.69,19.35-.4-.59-61.77-2.77-1.22,13.37-20.3-.67,7.85,32.06-.4,0,28.79H567.48l-.2,10.33h31.54c-3.09,6.92-8.6,13.67-21.46,19l-6.85,16.65c11-3.09,37.45-12.52,42.42-24.36,6.16,10.67,16,19.52,19.8,24.56Z" fill="#004476"/><polygon points="387.96 68.64 366.64 68.3 377.18 141.19 397.27 142.19 387.96 68.64" fill="#004476"/><path d="M406.08,181.15a1.68,1.68,0,0,1-1.82,1.77l-9.32.13-9.6.06a1.75,1.75,0,0,1-1.31-1.78l-.06-10-5.74,0,.22,11c.14,3.11,2.31,5.93,5.6,5.9l7.55,0v11.22h6.64V188.13l7.74-.22a5.31,5.31,0,0,0,5.42-4.77l.22-12.37-5.26-.1Z" fill="#004476"/><path d="M310.19,183.57a12.24,12.24,0,0,0-5.7-1.53h-16c-1.87-.08-2.17-4.71,0-4.89h24.3l.06-5.82H289.4a8.89,8.89,0,0,0-5.42,1.45c-3.44,2.59-3.28,11.4-.28,13.65a10,10,0,0,0,5.7,1.67l16,0c3.55-.1,4,5.65,0,5.43l-23.13,0,.09,5.92h22.14a12.5,12.5,0,0,0,5.74-1.55C314.94,195.2,314.75,186.22,310.19,183.57Z" fill="#004476"/><polygon points="361.58 171.34 351.91 171.34 341.15 182.86 337.77 182.86 337.77 171.34 331.13 171.34 331.13 199.46 337.77 199.46 337.77 188.67 342.24 188.44 352.23 199.46 362.04 199.46 347.64 184.84 361.58 171.34" fill="#004476"/><polygon points="587.88 187.7 609.53 187.7 609.53 181.99 587.88 181.99 587.88 177.1 609.87 177.1 609.87 171.34 581.24 171.34 581.24 199.46 610.09 199.46 610.09 193.59 587.88 193.59 587.88 187.7" fill="#004476"/><path d="M660.28,187.13c4.46-2.76,3.13-12.25-1.75-14.38-1.37-1.19-6-1.42-7.62-1.42H627.62v28.12h6.08l-.06-12.12-.06-9.89h20.58c4,.11,3.84,6,0,6l-15.9-.22,13.95,16.22h8.85L652,189.52C655.38,189.1,657.82,188.66,660.28,187.13Z" fill="#004476"/><path d="M459.94,172.76c-1.37-1.19-6-1.42-7.62-1.42H429v28.12h6.08l-.06-12.12-.06-9.89h20.58c4,.11,3.84,6,0,6l-15.9-.22,13.95,16.22h8.86l-9.12-9.94c3.39-.41,5.83-.86,8.29-2.39C466.15,184.37,464.83,174.89,459.94,172.76Z" fill="#004476"/><polygon points="548.56 191.26 537.95 171.34 530.53 171.34 545.94 199.46 550.92 199.46 565.08 171.34 558.08 171.34 548.56 191.26" fill="#004476"/><path d="M507.71,171.34H488.62c-1.8,0-4.35.19-5.79,1.56s-1.71,3.7-1.71,5.68v13.6c0,2,.29,4.34,1.71,5.7s4,1.57,5.8,1.57h19.08c1.78,0,4.3-.19,5.74-1.54s1.71-3.75,1.71-5.73v-13.6c0-2-.29-4.34-1.71-5.7S509.49,171.34,507.71,171.34Zm2.49,20.35a2.53,2.53,0,0,1-1.63,1.86H489.23c-1.08.16-2-.09-2.14-1.74V178.62c.08-1,.7-1.48,1.91-1.47h19.57a1.94,1.94,0,0,1,1.71,1.64Z" fill="#004476"/></svg>