<svg id="Layer_1" data-name="Layer 1" xmlns="http://www.w3.org/2000/svg" viewBox="0 0 110 40"><title>sus-sky</title><path d="M16.79,24.24H12.07V23a2.1,2.1,0,0,0-.18-1.1.71.71,0,0,0-.6-.24.81.81,0,0,0-.69.32,1.63,1.63,0,0,0-.24,1,2.39,2.39,0,0,0,.26,1.26,3.72,3.72,0,0,0,1.44,1A14.35,14.35,0,0,1,16.33,28a5.69,5.69,0,0,1,.88,3.55,5.41,5.41,0,0,1-.49,2.62,3.69,3.69,0,0,1-1.89,1.41,8.59,8.59,0,0,1-3.26.57,8.34,8.34,0,0,1-3.48-.66,3.51,3.51,0,0,1-1.89-1.68A7.41,7.41,0,0,1,5.76,31V29.89h4.72v2a2.32,2.32,0,0,0,.2,1.2.83.83,0,0,0,.71.27.87.87,0,0,0,.75-.34,1.7,1.7,0,0,0,.25-1,2.76,2.76,0,0,0-.47-1.92A15,15,0,0,0,9.54,28.6,23.56,23.56,0,0,1,7,27.05a3.64,3.64,0,0,1-1-1.34,5.1,5.1,0,0,1-.4-2.18,5.28,5.28,0,0,1,.57-2.8A3.73,3.73,0,0,1,8,19.35a8.51,8.51,0,0,1,3.09-.5,9.27,9.27,0,0,1,3.37.54,3.4,3.4,0,0,1,1.85,1.37,6.29,6.29,0,0,1,.45,2.81Z" fill="#fff"/><path d="M30.35,19.21V30.33A16.48,16.48,0,0,1,30.21,33a3.39,3.39,0,0,1-.86,1.57,4.44,4.44,0,0,1-1.88,1.22,8.16,8.16,0,0,1-2.74.42,8.9,8.9,0,0,1-3.09-.49,4.65,4.65,0,0,1-2-1.29,3.29,3.29,0,0,1-.78-1.67,34.66,34.66,0,0,1-.12-3.7V19.21h5.08V31.69A4.22,4.22,0,0,0,24,33.08a.55.55,0,0,0,.56.3.6.6,0,0,0,.62-.33,5.34,5.34,0,0,0,.14-1.58V19.21Z" fill="#fff"/><path d="M43.08,24.24H38.36V23a2.1,2.1,0,0,0-.18-1.1.71.71,0,0,0-.6-.24.81.81,0,0,0-.69.32,1.63,1.63,0,0,0-.24,1,2.39,2.39,0,0,0,.26,1.26,3.72,3.72,0,0,0,1.44,1A14.35,14.35,0,0,1,42.62,28a5.69,5.69,0,0,1,.88,3.55A5.41,5.41,0,0,1,43,34.22a3.69,3.69,0,0,1-1.89,1.41,8.59,8.59,0,0,1-3.26.57,8.34,8.34,0,0,1-3.48-.66,3.51,3.51,0,0,1-1.89-1.68A7.41,7.41,0,0,1,32.05,31V29.89h4.72v2a2.32,2.32,0,0,0,.2,1.2.83.83,0,0,0,.71.27.87.87,0,0,0,.75-.34,1.7,1.7,0,0,0,.25-1,2.76,2.76,0,0,0-.47-1.92,15,15,0,0,0-2.38-1.51,23.56,23.56,0,0,1-2.51-1.55,3.64,3.64,0,0,1-1-1.34,5.1,5.1,0,0,1-.4-2.18,5.28,5.28,0,0,1,.57-2.8,3.73,3.73,0,0,1,1.85-1.38,8.51,8.51,0,0,1,3.09-.5,9.27,9.27,0,0,1,3.37.54,3.4,3.4,0,0,1,1.85,1.37,6.29,6.29,0,0,1,.45,2.81Z" fill="#fff"/><path d="M50.92,27.6v2.87H44.51V27.6Z" fill="#fff"/><path d="M63.13,24.24H58.41V23a2.09,2.09,0,0,0-.18-1.1.71.71,0,0,0-.6-.24.81.81,0,0,0-.7.32,1.63,1.63,0,0,0-.23,1A2.4,2.4,0,0,0,57,24.21a3.75,3.75,0,0,0,1.44,1A14.32,14.32,0,0,1,62.67,28a5.69,5.69,0,0,1,.88,3.55,5.4,5.4,0,0,1-.49,2.62,3.69,3.69,0,0,1-1.89,1.41,8.6,8.6,0,0,1-3.26.57,8.34,8.34,0,0,1-3.48-.66,3.51,3.51,0,0,1-1.89-1.68A7.41,7.41,0,0,1,52.1,31V29.89h4.72v2a2.32,2.32,0,0,0,.2,1.2.83.83,0,0,0,.71.27.87.87,0,0,0,.75-.34,1.71,1.71,0,0,0,.25-1,2.77,2.77,0,0,0-.47-1.92,15,15,0,0,0-2.38-1.51,23.48,23.48,0,0,1-2.51-1.55,3.65,3.65,0,0,1-1-1.34,5.1,5.1,0,0,1-.4-2.18,5.28,5.28,0,0,1,.57-2.8,3.72,3.72,0,0,1,1.85-1.38,8.5,8.5,0,0,1,3.09-.5,9.27,9.27,0,0,1,3.37.54,3.41,3.41,0,0,1,1.85,1.37,6.31,6.31,0,0,1,.45,2.81Z" fill="#fff"/><path d="M77.25,19.21l-2.91,7.52,3.19,9.13H72.28l-2.06-7.13v7.13H65.14V19.21h5.08v6.47l2.26-6.47Z" fill="#fff"/><path d="M89.22,19.21l-3.7,10.62v6H80.81v-6L77.24,19.21h4.67a60.18,60.18,0,0,1,1.23,6.56q.42-2.66,1.41-6.56Z" fill="#fff"/><path d="M31.09,8c.11.08.17.14.17.2s-.06.1-.17.14a.7.7,0,0,0-.43.43C29.13,12.2,28.08,13.86,26.9,15l-.13-.11a26.46,26.46,0,0,0,3.47-7.45ZM34.16,4.8c.11.06.17.11.17.17s0,.1-.41.32V15.46c0,1.08-.11,1.33-.92,1.68a.43.43,0,0,1-.15,0c-.07,0-.1,0-.11-.15-.1-.48-.55-.71-1.86-1.09l.06-.21a12.09,12.09,0,0,0,1.83.28c.43,0,.48-.17.48-.5V6.68c0-.7,0-1.74-.06-2.41ZM35.65,8c1.58,1.33,3.81,3.71,3.81,5,0,.5-.28.78-.48.78s-.27-.13-.36-.55a14.37,14.37,0,0,0-3.12-5.07Z" fill="#fff"/><path d="M43.51,16.61l3-9.54h.67l-3,9.54Z" fill="#fff"/><path d="M63.67,13c0,.64-.07,1.15-.07,1.55a2.67,2.67,0,0,0,.34,1.64.68.68,0,0,1,.17.38c0,.18-.2.25-.5.25a6.41,6.41,0,0,1-3.32-.8c-1.75-1.05-2.65-1.89-2.65-6.18,0-1.05,0-2.3.15-3.81l-4.95.14a3.29,3.29,0,0,0-.94.15l-.39-.52a5.44,5.44,0,0,0,1,.06l5.07-.14.5-.69.85.73q.13.11.13.17c0,.06,0,.1-.14.17l-.52.35c-.08,1.09-.13,2.06-.15,2.9l.55.17a28,28,0,0,0,3-3.53l.85.73c.08.07.14.13.14.17s-.07.06-.21.07a1.16,1.16,0,0,0-.69.25L59.12,9.59a8.6,8.6,0,0,1,2.73,1.47,1.14,1.14,0,0,1,.36.8c0,.28-.13.48-.27.48s-.45-.21-.67-.53a6.54,6.54,0,0,0-3-2.19c0,.28,0,.53,0,.78,0,3.38,1.06,4.79,3.63,5.44a2.08,2.08,0,0,0,.52.08c.39,0,.57-.22.67-.83l.36-2.2Z" fill="#fff"/><path d="M68,16.61l3-9.54h.67l-3,9.54Z" fill="#fff"/><path d="M79.88,4.88C80,4.94,80,5,80,5s-.06.07-.17.11c-.34.11-.38.15-.53.49-.38.8-.77,1.64-1.22,2.45l.5.29c.06,0,.1.07.1.11s0,.07-.32.31v5.63c0,1.06,0,1.69.06,2.21v.11c0,.18,0,.24-.34.36a.8.8,0,0,1-.29.08c-.1,0-.13-.08-.13-.32v-.13c0-.83,0-1.62,0-2.35V8.78a20.6,20.6,0,0,1-2,3l-.18-.13A28.72,28.72,0,0,0,79,4.3Zm8.81,11.21c-.85,0-1.19.18-1.4.56a.09.09,0,0,1-.07.06.12.12,0,0,1-.08,0,6.33,6.33,0,0,1-3.31-4.92h-.2a7,7,0,0,1-4.52,5.46L79,17a7.27,7.27,0,0,0,3.95-5.29H80.29a2.88,2.88,0,0,0-.94.15L79,11.38a8.68,8.68,0,0,0,1,.06h3a25.72,25.72,0,0,0,.2-4.13H81a2.87,2.87,0,0,0-.94.15l-.39-.52a8.83,8.83,0,0,0,1,.06h2.52c0-.78,0-1.68-.06-2.73l1.16.42c.06,0,.1,0,.1.08s0,.06-.08.1l-.41.31c0,.64,0,1.26,0,1.82h2.37l.6-.85.94,1c.07.07.11.13.11.15s-.06.06-.15.06H83.87c0,2-.11,3.38-.21,4.13h3.08l.63-.88.94,1c.06.07.1.11.1.15s-.06.06-.17.06H84.1A5.4,5.4,0,0,0,88.69,16Zm-8.63-8c1.08.67,1.57,1.27,1.68,1.77a1.58,1.58,0,0,1,0,.25c0,.35-.17.67-.49.67-.14,0-.24-.15-.24-.42a4.09,4.09,0,0,0-1.11-2.14Zm7.13.41c.06,0,.08.07.08.11s0,.06-.11.07a1,1,0,0,0-.64.39L84.9,10.89l-.17-.13A17.81,17.81,0,0,0,86.4,7.88Z" fill="#fff"/><polyline points="89 36 95 19 89 4 96 4 102 19 96 36" fill="#fff"/></svg>